<svg xmlns="http://www.w3.org/2000/svg" xmlns:xlink="http://www.w3.org/1999/xlink" width="350" zoomAndPan="magnify" viewBox="0 0 262.5 62.999997" height="84" preserveAspectRatio="xMidYMid meet" version="1.0"><defs><g/></defs><g fill="#ff3873" fill-opacity="0.302"><g transform="translate(55.562183, 47.336264)"><g><path d="M 30.101562 -30.480469 C 30.101562 -31.832031 29.085938 -32.761719 27.609375 -32.761719 C 25.457031 -32.761719 23.640625 -30.015625 22.714844 -27.566406 L 20.433594 -27.0625 C 15.113281 -25.835938 10.046875 -25.289062 9.878906 -20.054688 C 9.792969 -16.929688 12.03125 -14.4375 14.988281 -14.4375 C 15.453125 -14.4375 15.875 -14.816406 15.875 -15.28125 C 15.914062 -15.789062 15.492188 -16.210938 15.03125 -16.210938 C 13.128906 -16.210938 11.609375 -17.816406 11.695312 -20.011719 C 11.695312 -23.429688 16.972656 -24.445312 20.8125 -25.332031 L 22.039062 -25.582031 C 21.910156 -25.160156 20.304688 -20.011719 19.714844 -18.027344 C 17.394531 -10.214844 14.4375 0.378906 7.175781 0.378906 C 4.09375 0.378906 1.6875 -2.070312 1.773438 -5.574219 C 1.773438 -9.203125 5.363281 -12.582031 9.289062 -12.582031 C 9.792969 -12.582031 10.214844 -12.960938 10.214844 -13.425781 C 10.214844 -13.933594 9.835938 -14.355469 9.328125 -14.355469 C 4.769531 -14.4375 0 -10.46875 0 -5.613281 C 0 -1.140625 2.957031 2.152344 7.132812 2.152344 C 15.789062 2.152344 19.039062 -8.992188 21.445312 -17.519531 C 21.742188 -18.617188 23.894531 -25.582031 24.0625 -26.089844 C 27.0625 -26.890625 30.101562 -28.496094 30.101562 -30.480469 Z M 24.910156 -28.203125 C 25.582031 -29.636719 26.679688 -31.070312 27.609375 -31.070312 C 27.949219 -31.070312 28.203125 -30.820312 28.203125 -30.480469 C 28.203125 -29.804688 26.679688 -28.582031 24.910156 -28.203125 Z M 24.910156 -28.203125 "/></g></g></g><g fill="#ff3873" fill-opacity="0.302"><g transform="translate(78.524968, 47.336264)"><g><path d="M 8.824219 -26.300781 C 8.65625 -25.792969 8.867188 -25.371094 9.246094 -25.078125 C 9.710938 -24.910156 10.175781 -25.078125 10.386719 -25.542969 L 12.875 -32.085938 C 13.085938 -32.59375 12.75 -33.140625 12.328125 -33.351562 C 11.863281 -33.519531 11.3125 -33.308594 11.144531 -32.84375 Z M 8.824219 -26.300781 "/></g></g></g><g fill="#ff3873" fill-opacity="0.302"><g transform="translate(87.389274, 47.336264)"><g><path d="M 28.496094 -9.246094 C 28.496094 -9.710938 28.03125 -10.132812 27.609375 -10.132812 C 27.273438 -10.132812 26.890625 -9.921875 26.765625 -9.582031 C 24.484375 -4.265625 22.796875 -1.773438 20.730469 -1.773438 C 19.84375 -1.773438 19.460938 -2.320312 19.460938 -3.546875 C 19.460938 -7.175781 22.714844 -12.03125 22.714844 -16.085938 C 22.714844 -18.324219 21.785156 -20.054688 18.746094 -20.054688 C 16.761719 -20.054688 14.605469 -18.109375 13.382812 -16.167969 C 13.382812 -18.40625 12.03125 -20.054688 9.5 -20.054688 C 8.0625 -20.054688 6.710938 -19.082031 5.488281 -17.648438 C 5.613281 -18.070312 5.742188 -18.40625 5.910156 -18.785156 C 6.121094 -19.335938 5.699219 -19.96875 5.066406 -19.96875 C 4.6875 -19.96875 4.347656 -19.757812 4.222656 -19.378906 C 2.070312 -13.296875 -0.125 -7.21875 -2.28125 -1.140625 C -2.449219 -0.675781 -2.195312 -0.167969 -1.730469 0 C -1.265625 0.125 -0.761719 -0.0859375 -0.589844 -0.589844 L 2.28125 -8.738281 C 2.53125 -9.414062 5.066406 -14.058594 5.824219 -15.199219 C 7.050781 -16.929688 8.316406 -18.28125 9.5 -18.28125 C 11.019531 -18.28125 11.609375 -17.476562 11.609375 -15.914062 C 11.609375 -14.4375 10.976562 -12.539062 10.089844 -9.964844 C 10.046875 -9.878906 7.261719 -1.605469 7.21875 -1.476562 C 7.007812 -0.929688 7.429688 -0.296875 8.0625 -0.296875 C 8.445312 -0.296875 8.78125 -0.507812 8.90625 -0.886719 C 8.867188 -0.800781 11.695312 -9.078125 11.777344 -9.328125 C 13.003906 -12.75 16.296875 -18.28125 18.746094 -18.28125 C 20.433594 -18.28125 20.941406 -17.308594 20.941406 -16.085938 C 20.941406 -12.621094 17.648438 -7.386719 17.648438 -3.546875 C 17.648438 -1.476562 18.660156 0 20.730469 0 C 24.484375 0 26.808594 -5.191406 28.371094 -8.738281 C 28.453125 -9.035156 28.496094 -9.117188 28.496094 -9.246094 Z M 28.496094 -9.246094 "/></g></g></g><g fill="#ff3873" fill-opacity="0.302"><g transform="translate(113.43346, 47.336264)"><g/></g></g><g fill="#ff3873" fill-opacity="0.302"><g transform="translate(126.096757, 47.336264)"><g><path d="M 38.460938 -29.679688 C 38.460938 -31.621094 35.800781 -32.59375 33.351562 -32.59375 C 30.777344 -32.59375 27.652344 -31.664062 25.542969 -29.890625 C 20.730469 -30.777344 14.605469 -33.140625 10.089844 -33.140625 C 4.558594 -33.140625 1.308594 -30.355469 1.308594 -25.625 C 1.308594 -21.785156 4.011719 -19.460938 7.9375 -19.460938 C 9.457031 -19.460938 11.101562 -19.84375 12.582031 -20.519531 C 12.917969 -20.6875 13.085938 -20.980469 13.085938 -21.320312 C 13.085938 -21.65625 12.835938 -22.207031 12.242188 -22.207031 C 12.074219 -22.207031 11.949219 -22.164062 11.820312 -22.121094 C 10.597656 -21.574219 9.246094 -21.234375 7.980469 -21.234375 C 5.066406 -21.234375 3.125 -22.671875 3.082031 -25.625 C 3.082031 -29.214844 5.65625 -31.324219 10.003906 -31.324219 C 14.777344 -31.324219 20.304688 -29.171875 24.023438 -28.371094 C 23.769531 -27.988281 23.472656 -27.609375 23.261719 -27.230469 C 21.488281 -24.191406 20.011719 -19.546875 18.957031 -16.128906 C 16 -7.304688 14.480469 0.886719 7.304688 0.800781 C 4.222656 0.800781 1.773438 -1.433594 1.773438 -5.023438 C 1.773438 -8.867188 5.402344 -12.199219 9.117188 -12.199219 C 9.625 -12.199219 10.003906 -12.582031 10.003906 -13.085938 C 10.003906 -13.59375 9.625 -13.972656 9.117188 -13.972656 C 4.476562 -13.972656 0 -10.003906 0 -5.023438 C 0 -0.675781 2.996094 2.574219 7.304688 2.574219 C 14.777344 2.703125 16.929688 -3.292969 20.644531 -15.578125 C 21.699219 -18.914062 23.136719 -23.515625 24.78125 -26.34375 C 25.160156 -26.933594 25.582031 -27.484375 26.089844 -27.988281 C 28.75 -27.484375 31.367188 -27.144531 33.4375 -27.144531 C 36.390625 -27.144531 38.375 -27.777344 38.460938 -29.679688 Z M 33.4375 -28.917969 C 32.042969 -28.917969 30.101562 -29.128906 28.074219 -29.46875 C 29.511719 -30.269531 31.664062 -30.820312 33.308594 -30.820312 C 34.535156 -30.820312 36.644531 -30.355469 36.644531 -29.722656 C 36.644531 -29.128906 35.421875 -28.917969 33.4375 -28.917969 Z M 33.4375 -28.917969 "/></g></g></g><g fill="#ff3873" fill-opacity="0.302"><g transform="translate(152.225355, 47.336264)"><g><path d="M 15.28125 -10.046875 C 14.816406 -10.214844 14.3125 -10.003906 14.101562 -9.582031 C 11.738281 -4.136719 9.035156 -1.6875 5.574219 -1.773438 C 3.039062 -1.859375 1.6875 -3.335938 1.773438 -5.742188 C 1.816406 -6.628906 1.941406 -7.429688 2.238281 -8.527344 C 6.921875 -9.667969 13.214844 -12.371094 13.214844 -16.84375 C 13.214844 -18.871094 11.738281 -19.96875 9.625 -19.96875 C 4.644531 -19.96875 0.253906 -11.1875 0 -5.785156 C -0.0859375 -2.320312 2.027344 0 5.53125 0 C 9.792969 0 13.003906 -2.785156 15.746094 -8.867188 C 15.789062 -8.992188 15.832031 -9.078125 15.832031 -9.203125 C 15.832031 -9.542969 15.621094 -9.878906 15.28125 -10.046875 Z M 2.914062 -10.554688 C 4.265625 -13.804688 6.710938 -18.195312 9.625 -18.195312 C 10.554688 -18.195312 11.441406 -17.984375 11.441406 -16.84375 C 11.441406 -13.71875 6.417969 -11.652344 2.914062 -10.554688 Z M 2.914062 -10.554688 "/></g></g></g><g fill="#ff3873" fill-opacity="0.302"><g transform="translate(165.606244, 47.336264)"><g><path d="M 6.882812 -22.121094 C 7.683594 -22.121094 8.316406 -22.753906 8.316406 -23.558594 C 8.316406 -24.359375 7.683594 -24.992188 6.882812 -24.992188 C 6.078125 -24.992188 5.402344 -24.359375 5.402344 -23.558594 C 5.402344 -22.753906 6.078125 -22.121094 6.882812 -22.121094 Z M 9.964844 -10.003906 C 9.835938 -10.046875 9.710938 -10.089844 9.582031 -10.089844 C 9.246094 -10.089844 8.949219 -9.878906 8.78125 -9.542969 C 6.671875 -4.558594 3.714844 -0.675781 -1.140625 0.972656 C 5.402344 -17.519531 2.070312 -8.105469 5.996094 -18.703125 C 6.25 -19.378906 5.742188 -19.96875 5.191406 -19.96875 C 4.855469 -19.96875 4.476562 -19.714844 4.304688 -19.292969 C 1.140625 -10.722656 1.6875 -12.707031 -3.25 1.605469 C -4.390625 1.898438 -5.53125 2.109375 -6.585938 2.28125 C -11.652344 3.207031 -13.71875 5.152344 -13.71875 7.808594 C -13.71875 10.300781 -12.074219 11.949219 -9.542969 11.90625 C -6.5 11.863281 -3.882812 8.867188 -1.859375 3.082031 C 4.304688 1.265625 7.808594 -2.660156 10.425781 -8.824219 C 10.46875 -8.949219 10.511719 -9.078125 10.511719 -9.203125 C 10.511719 -9.542969 10.300781 -9.835938 9.964844 -10.003906 Z M -9.542969 10.132812 C -10.976562 10.175781 -11.949219 9.246094 -11.949219 7.769531 C -11.777344 5.824219 -10.132812 4.726562 -6.25 4.054688 C -5.488281 3.925781 -4.726562 3.757812 -3.925781 3.589844 C -5.320312 7.851562 -7.261719 10.089844 -9.542969 10.132812 Z M -9.542969 10.132812 "/></g></g></g><g fill="#ff3873" fill-opacity="0.302"><g transform="translate(173.668548, 47.336264)"><g><path d="M 18.914062 -10.046875 C 18.785156 -10.089844 18.660156 -10.132812 18.535156 -10.132812 C 18.195312 -10.132812 17.898438 -9.921875 17.730469 -9.582031 L 17.6875 -9.457031 C 16.296875 -6.332031 14.269531 -1.773438 11.652344 -1.773438 C 10.765625 -1.773438 10.386719 -2.28125 10.386719 -3.546875 C 10.386719 -5.402344 11.777344 -9.078125 13.296875 -13.339844 L 15.410156 -18.996094 C 15.621094 -19.503906 15.28125 -20.179688 14.605469 -20.179688 C 14.226562 -20.179688 13.890625 -19.96875 13.761719 -19.632812 C 13.550781 -19.082031 13.296875 -18.449219 13.046875 -17.730469 C 12.285156 -19.25 10.976562 -19.96875 9.203125 -19.96875 C 4.136719 -19.96875 -0.125 -10.089844 -0.125 -4.558594 C -0.125 -2.027344 0.972656 0 3.335938 0 C 5.152344 0 6.921875 -1.183594 8.613281 -3.546875 C 8.613281 -1.476562 9.625 0 11.652344 0 C 15.453125 0 17.730469 -5.191406 19.335938 -8.738281 L 19.378906 -8.867188 C 19.421875 -8.992188 19.460938 -9.117188 19.460938 -9.246094 C 19.460938 -9.582031 19.25 -9.878906 18.914062 -10.046875 Z M 3.292969 -1.773438 C 2.027344 -1.773438 1.644531 -2.996094 1.644531 -4.855469 C 1.730469 -9.035156 5.320312 -18.109375 9.203125 -18.195312 C 10.722656 -18.195312 11.820312 -17.054688 11.90625 -15.113281 L 10.890625 -12.410156 C 9.203125 -8.105469 6.710938 -1.773438 3.292969 -1.773438 Z M 3.292969 -1.773438 "/></g></g></g><g fill="#ff3873" fill-opacity="0.302"><g transform="translate(190.679582, 47.336264)"><g><path d="M 13.933594 -7.472656 C 13.890625 -10.34375 12.75 -11.820312 10.554688 -15.875 C 11.863281 -17.351562 12.917969 -19.207031 12.917969 -20.898438 C 12.835938 -22.121094 12.117188 -23.09375 10.890625 -23.09375 C 9.160156 -23.09375 7.808594 -21.234375 7.808594 -19.039062 C 7.808594 -18.070312 8.0625 -17.140625 8.445312 -16.253906 C 7.9375 -15.746094 7.515625 -15.28125 7.007812 -14.691406 C 6.882812 -14.523438 6.796875 -14.3125 6.796875 -14.144531 C 6.796875 -13.890625 6.882812 -13.59375 7.09375 -13.425781 C 7.261719 -13.257812 7.515625 -13.214844 7.726562 -13.214844 C 7.980469 -13.214844 8.230469 -13.339844 8.402344 -13.550781 C 8.65625 -13.890625 8.949219 -14.226562 9.246094 -14.523438 C 11.484375 -10.597656 12.117188 -9.371094 12.160156 -7.515625 C 12.074219 -4.011719 9.625 -1.773438 6.207031 -1.773438 C 3.757812 -1.773438 1.605469 -3.589844 1.605469 -6.164062 C 1.773438 -8.738281 3.292969 -10.679688 5.613281 -10.679688 C 6.710938 -10.679688 7.769531 -9.625 7.851562 -8.191406 C 7.851562 -7.683594 8.230469 -7.304688 8.738281 -7.304688 C 9.246094 -7.304688 9.625 -7.683594 9.625 -8.191406 C 9.542969 -10.511719 7.769531 -12.453125 5.574219 -12.453125 C 2.195312 -12.453125 0.0859375 -9.964844 -0.167969 -6.164062 C -0.167969 -2.742188 2.703125 0 6.207031 0 C 10.46875 0 13.847656 -2.914062 13.933594 -7.472656 Z M 9.792969 -17.730469 C 9.667969 -18.195312 9.582031 -18.617188 9.582031 -19.082031 C 9.582031 -19.671875 9.710938 -20.433594 10.214844 -20.941406 C 10.640625 -21.363281 11.101562 -21.488281 11.101562 -20.898438 C 11.101562 -19.96875 10.46875 -18.660156 9.792969 -17.730469 Z M 9.792969 -17.730469 "/></g></g></g><g fill="#ff3873" fill-opacity="0.502"><g transform="translate(55.562183, 47.283489)"><g><path d="M 30.101562 -30.480469 C 30.101562 -31.832031 29.085938 -32.761719 27.609375 -32.761719 C 25.457031 -32.761719 23.640625 -30.015625 22.714844 -27.566406 L 20.433594 -27.0625 C 15.113281 -25.835938 10.046875 -25.289062 9.878906 -20.054688 C 9.792969 -16.929688 12.03125 -14.4375 14.988281 -14.4375 C 15.453125 -14.4375 15.875 -14.816406 15.875 -15.28125 C 15.914062 -15.789062 15.492188 -16.210938 15.03125 -16.210938 C 13.128906 -16.210938 11.609375 -17.816406 11.695312 -20.011719 C 11.695312 -23.429688 16.972656 -24.445312 20.8125 -25.332031 L 22.039062 -25.582031 C 21.910156 -25.160156 20.304688 -20.011719 19.714844 -18.027344 C 17.394531 -10.214844 14.4375 0.378906 7.175781 0.378906 C 4.09375 0.378906 1.6875 -2.070312 1.773438 -5.574219 C 1.773438 -9.203125 5.363281 -12.582031 9.289062 -12.582031 C 9.792969 -12.582031 10.214844 -12.960938 10.214844 -13.425781 C 10.214844 -13.933594 9.835938 -14.355469 9.328125 -14.355469 C 4.769531 -14.4375 0 -10.46875 0 -5.613281 C 0 -1.140625 2.957031 2.152344 7.132812 2.152344 C 15.789062 2.152344 19.039062 -8.992188 21.445312 -17.519531 C 21.742188 -18.617188 23.894531 -25.582031 24.0625 -26.089844 C 27.0625 -26.890625 30.101562 -28.496094 30.101562 -30.480469 Z M 24.910156 -28.203125 C 25.582031 -29.636719 26.679688 -31.070312 27.609375 -31.070312 C 27.949219 -31.070312 28.203125 -30.820312 28.203125 -30.480469 C 28.203125 -29.804688 26.679688 -28.582031 24.910156 -28.203125 Z M 24.910156 -28.203125 "/></g></g></g><g fill="#ff3873" fill-opacity="0.502"><g transform="translate(78.524968, 47.283489)"><g><path d="M 8.824219 -26.300781 C 8.65625 -25.792969 8.867188 -25.371094 9.246094 -25.078125 C 9.710938 -24.910156 10.175781 -25.078125 10.386719 -25.542969 L 12.875 -32.085938 C 13.085938 -32.59375 12.75 -33.140625 12.328125 -33.351562 C 11.863281 -33.519531 11.3125 -33.308594 11.144531 -32.84375 Z M 8.824219 -26.300781 "/></g></g></g><g fill="#ff3873" fill-opacity="0.502"><g transform="translate(87.389274, 47.283489)"><g><path d="M 28.496094 -9.246094 C 28.496094 -9.710938 28.03125 -10.132812 27.609375 -10.132812 C 27.273438 -10.132812 26.890625 -9.921875 26.765625 -9.582031 C 24.484375 -4.265625 22.796875 -1.773438 20.730469 -1.773438 C 19.84375 -1.773438 19.460938 -2.320312 19.460938 -3.546875 C 19.460938 -7.175781 22.714844 -12.03125 22.714844 -16.085938 C 22.714844 -18.324219 21.785156 -20.054688 18.746094 -20.054688 C 16.761719 -20.054688 14.605469 -18.109375 13.382812 -16.167969 C 13.382812 -18.40625 12.03125 -20.054688 9.5 -20.054688 C 8.0625 -20.054688 6.710938 -19.082031 5.488281 -17.648438 C 5.613281 -18.070312 5.742188 -18.40625 5.910156 -18.785156 C 6.121094 -19.335938 5.699219 -19.96875 5.066406 -19.96875 C 4.6875 -19.96875 4.347656 -19.757812 4.222656 -19.378906 C 2.070312 -13.296875 -0.125 -7.21875 -2.28125 -1.140625 C -2.449219 -0.675781 -2.195312 -0.167969 -1.730469 0 C -1.265625 0.125 -0.761719 -0.0859375 -0.589844 -0.589844 L 2.28125 -8.738281 C 2.53125 -9.414062 5.066406 -14.058594 5.824219 -15.199219 C 7.050781 -16.929688 8.316406 -18.28125 9.5 -18.28125 C 11.019531 -18.28125 11.609375 -17.476562 11.609375 -15.914062 C 11.609375 -14.4375 10.976562 -12.539062 10.089844 -9.964844 C 10.046875 -9.878906 7.261719 -1.605469 7.21875 -1.476562 C 7.007812 -0.929688 7.429688 -0.296875 8.0625 -0.296875 C 8.445312 -0.296875 8.78125 -0.507812 8.90625 -0.886719 C 8.867188 -0.800781 11.695312 -9.078125 11.777344 -9.328125 C 13.003906 -12.75 16.296875 -18.28125 18.746094 -18.28125 C 20.433594 -18.28125 20.941406 -17.308594 20.941406 -16.085938 C 20.941406 -12.621094 17.648438 -7.386719 17.648438 -3.546875 C 17.648438 -1.476562 18.660156 0 20.730469 0 C 24.484375 0 26.808594 -5.191406 28.371094 -8.738281 C 28.453125 -9.035156 28.496094 -9.117188 28.496094 -9.246094 Z M 28.496094 -9.246094 "/></g></g></g><g fill="#ff3873" fill-opacity="0.502"><g transform="translate(113.43346, 47.283489)"><g/></g></g><g fill="#ff3873" fill-opacity="0.502"><g transform="translate(126.096757, 47.283489)"><g><path d="M 38.460938 -29.679688 C 38.460938 -31.621094 35.800781 -32.59375 33.351562 -32.59375 C 30.777344 -32.59375 27.652344 -31.664062 25.542969 -29.890625 C 20.730469 -30.777344 14.605469 -33.140625 10.089844 -33.140625 C 4.558594 -33.140625 1.308594 -30.355469 1.308594 -25.625 C 1.308594 -21.785156 4.011719 -19.460938 7.9375 -19.460938 C 9.457031 -19.460938 11.101562 -19.84375 12.582031 -20.519531 C 12.917969 -20.6875 13.085938 -20.980469 13.085938 -21.320312 C 13.085938 -21.65625 12.835938 -22.207031 12.242188 -22.207031 C 12.074219 -22.207031 11.949219 -22.164062 11.820312 -22.121094 C 10.597656 -21.574219 9.246094 -21.234375 7.980469 -21.234375 C 5.066406 -21.234375 3.125 -22.671875 3.082031 -25.625 C 3.082031 -29.214844 5.65625 -31.324219 10.003906 -31.324219 C 14.777344 -31.324219 20.304688 -29.171875 24.023438 -28.371094 C 23.769531 -27.988281 23.472656 -27.609375 23.261719 -27.230469 C 21.488281 -24.191406 20.011719 -19.546875 18.957031 -16.128906 C 16 -7.304688 14.480469 0.886719 7.304688 0.800781 C 4.222656 0.800781 1.773438 -1.433594 1.773438 -5.023438 C 1.773438 -8.867188 5.402344 -12.199219 9.117188 -12.199219 C 9.625 -12.199219 10.003906 -12.582031 10.003906 -13.085938 C 10.003906 -13.59375 9.625 -13.972656 9.117188 -13.972656 C 4.476562 -13.972656 0 -10.003906 0 -5.023438 C 0 -0.675781 2.996094 2.574219 7.304688 2.574219 C 14.777344 2.703125 16.929688 -3.292969 20.644531 -15.578125 C 21.699219 -18.914062 23.136719 -23.515625 24.78125 -26.34375 C 25.160156 -26.933594 25.582031 -27.484375 26.089844 -27.988281 C 28.75 -27.484375 31.367188 -27.144531 33.4375 -27.144531 C 36.390625 -27.144531 38.375 -27.777344 38.460938 -29.679688 Z M 33.4375 -28.917969 C 32.042969 -28.917969 30.101562 -29.128906 28.074219 -29.46875 C 29.511719 -30.269531 31.664062 -30.820312 33.308594 -30.820312 C 34.535156 -30.820312 36.644531 -30.355469 36.644531 -29.722656 C 36.644531 -29.128906 35.421875 -28.917969 33.4375 -28.917969 Z M 33.4375 -28.917969 "/></g></g></g><g fill="#ff3873" fill-opacity="0.502"><g transform="translate(152.225355, 47.283489)"><g><path d="M 15.28125 -10.046875 C 14.816406 -10.214844 14.3125 -10.003906 14.101562 -9.582031 C 11.738281 -4.136719 9.035156 -1.6875 5.574219 -1.773438 C 3.039062 -1.859375 1.6875 -3.335938 1.773438 -5.742188 C 1.816406 -6.628906 1.941406 -7.429688 2.238281 -8.527344 C 6.921875 -9.667969 13.214844 -12.371094 13.214844 -16.84375 C 13.214844 -18.871094 11.738281 -19.96875 9.625 -19.96875 C 4.644531 -19.96875 0.253906 -11.1875 0 -5.785156 C -0.0859375 -2.320312 2.027344 0 5.53125 0 C 9.792969 0 13.003906 -2.785156 15.746094 -8.867188 C 15.789062 -8.992188 15.832031 -9.078125 15.832031 -9.203125 C 15.832031 -9.542969 15.621094 -9.878906 15.28125 -10.046875 Z M 2.914062 -10.554688 C 4.265625 -13.804688 6.710938 -18.195312 9.625 -18.195312 C 10.554688 -18.195312 11.441406 -17.984375 11.441406 -16.84375 C 11.441406 -13.71875 6.417969 -11.652344 2.914062 -10.554688 Z M 2.914062 -10.554688 "/></g></g></g><g fill="#ff3873" fill-opacity="0.502"><g transform="translate(165.606244, 47.283489)"><g><path d="M 6.882812 -22.121094 C 7.683594 -22.121094 8.316406 -22.753906 8.316406 -23.558594 C 8.316406 -24.359375 7.683594 -24.992188 6.882812 -24.992188 C 6.078125 -24.992188 5.402344 -24.359375 5.402344 -23.558594 C 5.402344 -22.753906 6.078125 -22.121094 6.882812 -22.121094 Z M 9.964844 -10.003906 C 9.835938 -10.046875 9.710938 -10.089844 9.582031 -10.089844 C 9.246094 -10.089844 8.949219 -9.878906 8.78125 -9.542969 C 6.671875 -4.558594 3.714844 -0.675781 -1.140625 0.972656 C 5.402344 -17.519531 2.070312 -8.105469 5.996094 -18.703125 C 6.25 -19.378906 5.742188 -19.96875 5.191406 -19.96875 C 4.855469 -19.96875 4.476562 -19.714844 4.304688 -19.292969 C 1.140625 -10.722656 1.6875 -12.707031 -3.25 1.605469 C -4.390625 1.898438 -5.53125 2.109375 -6.585938 2.28125 C -11.652344 3.207031 -13.71875 5.152344 -13.71875 7.808594 C -13.71875 10.300781 -12.074219 11.949219 -9.542969 11.90625 C -6.5 11.863281 -3.882812 8.867188 -1.859375 3.082031 C 4.304688 1.265625 7.808594 -2.660156 10.425781 -8.824219 C 10.46875 -8.949219 10.511719 -9.078125 10.511719 -9.203125 C 10.511719 -9.542969 10.300781 -9.835938 9.964844 -10.003906 Z M -9.542969 10.132812 C -10.976562 10.175781 -11.949219 9.246094 -11.949219 7.769531 C -11.777344 5.824219 -10.132812 4.726562 -6.25 4.054688 C -5.488281 3.925781 -4.726562 3.757812 -3.925781 3.589844 C -5.320312 7.851562 -7.261719 10.089844 -9.542969 10.132812 Z M -9.542969 10.132812 "/></g></g></g><g fill="#ff3873" fill-opacity="0.502"><g transform="translate(173.668548, 47.283489)"><g><path d="M 18.914062 -10.046875 C 18.785156 -10.089844 18.660156 -10.132812 18.535156 -10.132812 C 18.195312 -10.132812 17.898438 -9.921875 17.730469 -9.582031 L 17.6875 -9.457031 C 16.296875 -6.332031 14.269531 -1.773438 11.652344 -1.773438 C 10.765625 -1.773438 10.386719 -2.28125 10.386719 -3.546875 C 10.386719 -5.402344 11.777344 -9.078125 13.296875 -13.339844 L 15.410156 -18.996094 C 15.621094 -19.503906 15.28125 -20.179688 14.605469 -20.179688 C 14.226562 -20.179688 13.890625 -19.96875 13.761719 -19.632812 C 13.550781 -19.082031 13.296875 -18.449219 13.046875 -17.730469 C 12.285156 -19.25 10.976562 -19.96875 9.203125 -19.96875 C 4.136719 -19.96875 -0.125 -10.089844 -0.125 -4.558594 C -0.125 -2.027344 0.972656 0 3.335938 0 C 5.152344 0 6.921875 -1.183594 8.613281 -3.546875 C 8.613281 -1.476562 9.625 0 11.652344 0 C 15.453125 0 17.730469 -5.191406 19.335938 -8.738281 L 19.378906 -8.867188 C 19.421875 -8.992188 19.460938 -9.117188 19.460938 -9.246094 C 19.460938 -9.582031 19.25 -9.878906 18.914062 -10.046875 Z M 3.292969 -1.773438 C 2.027344 -1.773438 1.644531 -2.996094 1.644531 -4.855469 C 1.730469 -9.035156 5.320312 -18.109375 9.203125 -18.195312 C 10.722656 -18.195312 11.820312 -17.054688 11.90625 -15.113281 L 10.890625 -12.410156 C 9.203125 -8.105469 6.710938 -1.773438 3.292969 -1.773438 Z M 3.292969 -1.773438 "/></g></g></g><g fill="#ff3873" fill-opacity="0.502"><g transform="translate(190.679582, 47.283489)"><g><path d="M 13.933594 -7.472656 C 13.890625 -10.34375 12.75 -11.820312 10.554688 -15.875 C 11.863281 -17.351562 12.917969 -19.207031 12.917969 -20.898438 C 12.835938 -22.121094 12.117188 -23.09375 10.890625 -23.09375 C 9.160156 -23.09375 7.808594 -21.234375 7.808594 -19.039062 C 7.808594 -18.070312 8.0625 -17.140625 8.445312 -16.253906 C 7.9375 -15.746094 7.515625 -15.28125 7.007812 -14.691406 C 6.882812 -14.523438 6.796875 -14.3125 6.796875 -14.144531 C 6.796875 -13.890625 6.882812 -13.59375 7.09375 -13.425781 C 7.261719 -13.257812 7.515625 -13.214844 7.726562 -13.214844 C 7.980469 -13.214844 8.230469 -13.339844 8.402344 -13.550781 C 8.65625 -13.890625 8.949219 -14.226562 9.246094 -14.523438 C 11.484375 -10.597656 12.117188 -9.371094 12.160156 -7.515625 C 12.074219 -4.011719 9.625 -1.773438 6.207031 -1.773438 C 3.757812 -1.773438 1.605469 -3.589844 1.605469 -6.164062 C 1.773438 -8.738281 3.292969 -10.679688 5.613281 -10.679688 C 6.710938 -10.679688 7.769531 -9.625 7.851562 -8.191406 C 7.851562 -7.683594 8.230469 -7.304688 8.738281 -7.304688 C 9.246094 -7.304688 9.625 -7.683594 9.625 -8.191406 C 9.542969 -10.511719 7.769531 -12.453125 5.574219 -12.453125 C 2.195312 -12.453125 0.0859375 -9.964844 -0.167969 -6.164062 C -0.167969 -2.742188 2.703125 0 6.207031 0 C 10.46875 0 13.847656 -2.914062 13.933594 -7.472656 Z M 9.792969 -17.730469 C 9.667969 -18.195312 9.582031 -18.617188 9.582031 -19.082031 C 9.582031 -19.671875 9.710938 -20.433594 10.214844 -20.941406 C 10.640625 -21.363281 11.101562 -21.488281 11.101562 -20.898438 C 11.101562 -19.96875 10.46875 -18.660156 9.792969 -17.730469 Z M 9.792969 -17.730469 "/></g></g></g><g fill="#45b29a" fill-opacity="1"><g transform="translate(55.562183, 47.230715)"><g><path d="M 30.101562 -30.480469 C 30.101562 -31.832031 29.085938 -32.761719 27.609375 -32.761719 C 25.457031 -32.761719 23.640625 -30.015625 22.714844 -27.566406 L 20.433594 -27.0625 C 15.113281 -25.835938 10.046875 -25.289062 9.878906 -20.054688 C 9.792969 -16.929688 12.03125 -14.4375 14.988281 -14.4375 C 15.453125 -14.4375 15.875 -14.816406 15.875 -15.28125 C 15.914062 -15.789062 15.492188 -16.210938 15.03125 -16.210938 C 13.128906 -16.210938 11.609375 -17.816406 11.695312 -20.011719 C 11.695312 -23.429688 16.972656 -24.445312 20.8125 -25.332031 L 22.039062 -25.582031 C 21.910156 -25.160156 20.304688 -20.011719 19.714844 -18.027344 C 17.394531 -10.214844 14.4375 0.378906 7.175781 0.378906 C 4.09375 0.378906 1.6875 -2.070312 1.773438 -5.574219 C 1.773438 -9.203125 5.363281 -12.582031 9.289062 -12.582031 C 9.792969 -12.582031 10.214844 -12.960938 10.214844 -13.425781 C 10.214844 -13.933594 9.835938 -14.355469 9.328125 -14.355469 C 4.769531 -14.4375 0 -10.46875 0 -5.613281 C 0 -1.140625 2.957031 2.152344 7.132812 2.152344 C 15.789062 2.152344 19.039062 -8.992188 21.445312 -17.519531 C 21.742188 -18.617188 23.894531 -25.582031 24.0625 -26.089844 C 27.0625 -26.890625 30.101562 -28.496094 30.101562 -30.480469 Z M 24.910156 -28.203125 C 25.582031 -29.636719 26.679688 -31.070312 27.609375 -31.070312 C 27.949219 -31.070312 28.203125 -30.820312 28.203125 -30.480469 C 28.203125 -29.804688 26.679688 -28.582031 24.910156 -28.203125 Z M 24.910156 -28.203125 "/></g></g></g><g fill="#45b29a" fill-opacity="1"><g transform="translate(78.524968, 47.230715)"><g><path d="M 8.824219 -26.300781 C 8.65625 -25.792969 8.867188 -25.371094 9.246094 -25.078125 C 9.710938 -24.910156 10.175781 -25.078125 10.386719 -25.542969 L 12.875 -32.085938 C 13.085938 -32.59375 12.75 -33.140625 12.328125 -33.351562 C 11.863281 -33.519531 11.3125 -33.308594 11.144531 -32.84375 Z M 8.824219 -26.300781 "/></g></g></g><g fill="#45b29a" fill-opacity="1"><g transform="translate(87.389274, 47.230715)"><g><path d="M 28.496094 -9.246094 C 28.496094 -9.710938 28.03125 -10.132812 27.609375 -10.132812 C 27.273438 -10.132812 26.890625 -9.921875 26.765625 -9.582031 C 24.484375 -4.265625 22.796875 -1.773438 20.730469 -1.773438 C 19.84375 -1.773438 19.460938 -2.320312 19.460938 -3.546875 C 19.460938 -7.175781 22.714844 -12.03125 22.714844 -16.085938 C 22.714844 -18.324219 21.785156 -20.054688 18.746094 -20.054688 C 16.761719 -20.054688 14.605469 -18.109375 13.382812 -16.167969 C 13.382812 -18.40625 12.03125 -20.054688 9.5 -20.054688 C 8.0625 -20.054688 6.710938 -19.082031 5.488281 -17.648438 C 5.613281 -18.070312 5.742188 -18.40625 5.910156 -18.785156 C 6.121094 -19.335938 5.699219 -19.96875 5.066406 -19.96875 C 4.6875 -19.96875 4.347656 -19.757812 4.222656 -19.378906 C 2.070312 -13.296875 -0.125 -7.21875 -2.28125 -1.140625 C -2.449219 -0.675781 -2.195312 -0.167969 -1.730469 0 C -1.265625 0.125 -0.761719 -0.0859375 -0.589844 -0.589844 L 2.28125 -8.738281 C 2.53125 -9.414062 5.066406 -14.058594 5.824219 -15.199219 C 7.050781 -16.929688 8.316406 -18.28125 9.5 -18.28125 C 11.019531 -18.28125 11.609375 -17.476562 11.609375 -15.914062 C 11.609375 -14.4375 10.976562 -12.539062 10.089844 -9.964844 C 10.046875 -9.878906 7.261719 -1.605469 7.21875 -1.476562 C 7.007812 -0.929688 7.429688 -0.296875 8.0625 -0.296875 C 8.445312 -0.296875 8.78125 -0.507812 8.90625 -0.886719 C 8.867188 -0.800781 11.695312 -9.078125 11.777344 -9.328125 C 13.003906 -12.75 16.296875 -18.28125 18.746094 -18.28125 C 20.433594 -18.28125 20.941406 -17.308594 20.941406 -16.085938 C 20.941406 -12.621094 17.648438 -7.386719 17.648438 -3.546875 C 17.648438 -1.476562 18.660156 0 20.730469 0 C 24.484375 0 26.808594 -5.191406 28.371094 -8.738281 C 28.453125 -9.035156 28.496094 -9.117188 28.496094 -9.246094 Z M 28.496094 -9.246094 "/></g></g></g><g fill="#45b29a" fill-opacity="1"><g transform="translate(113.43346, 47.230715)"><g/></g></g><g fill="#45b29a" fill-opacity="1"><g transform="translate(126.096757, 47.230715)"><g><path d="M 38.460938 -29.679688 C 38.460938 -31.621094 35.800781 -32.59375 33.351562 -32.59375 C 30.777344 -32.59375 27.652344 -31.664062 25.542969 -29.890625 C 20.730469 -30.777344 14.605469 -33.140625 10.089844 -33.140625 C 4.558594 -33.140625 1.308594 -30.355469 1.308594 -25.625 C 1.308594 -21.785156 4.011719 -19.460938 7.9375 -19.460938 C 9.457031 -19.460938 11.101562 -19.84375 12.582031 -20.519531 C 12.917969 -20.6875 13.085938 -20.980469 13.085938 -21.320312 C 13.085938 -21.65625 12.835938 -22.207031 12.242188 -22.207031 C 12.074219 -22.207031 11.949219 -22.164062 11.820312 -22.121094 C 10.597656 -21.574219 9.246094 -21.234375 7.980469 -21.234375 C 5.066406 -21.234375 3.125 -22.671875 3.082031 -25.625 C 3.082031 -29.214844 5.65625 -31.324219 10.003906 -31.324219 C 14.777344 -31.324219 20.304688 -29.171875 24.023438 -28.371094 C 23.769531 -27.988281 23.472656 -27.609375 23.261719 -27.230469 C 21.488281 -24.191406 20.011719 -19.546875 18.957031 -16.128906 C 16 -7.304688 14.480469 0.886719 7.304688 0.800781 C 4.222656 0.800781 1.773438 -1.433594 1.773438 -5.023438 C 1.773438 -8.867188 5.402344 -12.199219 9.117188 -12.199219 C 9.625 -12.199219 10.003906 -12.582031 10.003906 -13.085938 C 10.003906 -13.59375 9.625 -13.972656 9.117188 -13.972656 C 4.476562 -13.972656 0 -10.003906 0 -5.023438 C 0 -0.675781 2.996094 2.574219 7.304688 2.574219 C 14.777344 2.703125 16.929688 -3.292969 20.644531 -15.578125 C 21.699219 -18.914062 23.136719 -23.515625 24.78125 -26.34375 C 25.160156 -26.933594 25.582031 -27.484375 26.089844 -27.988281 C 28.75 -27.484375 31.367188 -27.144531 33.4375 -27.144531 C 36.390625 -27.144531 38.375 -27.777344 38.460938 -29.679688 Z M 33.4375 -28.917969 C 32.042969 -28.917969 30.101562 -29.128906 28.074219 -29.46875 C 29.511719 -30.269531 31.664062 -30.820312 33.308594 -30.820312 C 34.535156 -30.820312 36.644531 -30.355469 36.644531 -29.722656 C 36.644531 -29.128906 35.421875 -28.917969 33.4375 -28.917969 Z M 33.4375 -28.917969 "/></g></g></g><g fill="#45b29a" fill-opacity="1"><g transform="translate(152.225355, 47.230715)"><g><path d="M 15.28125 -10.046875 C 14.816406 -10.214844 14.3125 -10.003906 14.101562 -9.582031 C 11.738281 -4.136719 9.035156 -1.6875 5.574219 -1.773438 C 3.039062 -1.859375 1.6875 -3.335938 1.773438 -5.742188 C 1.816406 -6.628906 1.941406 -7.429688 2.238281 -8.527344 C 6.921875 -9.667969 13.214844 -12.371094 13.214844 -16.84375 C 13.214844 -18.871094 11.738281 -19.96875 9.625 -19.96875 C 4.644531 -19.96875 0.253906 -11.1875 0 -5.785156 C -0.0859375 -2.320312 2.027344 0 5.53125 0 C 9.792969 0 13.003906 -2.785156 15.746094 -8.867188 C 15.789062 -8.992188 15.832031 -9.078125 15.832031 -9.203125 C 15.832031 -9.542969 15.621094 -9.878906 15.28125 -10.046875 Z M 2.914062 -10.554688 C 4.265625 -13.804688 6.710938 -18.195312 9.625 -18.195312 C 10.554688 -18.195312 11.441406 -17.984375 11.441406 -16.84375 C 11.441406 -13.71875 6.417969 -11.652344 2.914062 -10.554688 Z M 2.914062 -10.554688 "/></g></g></g><g fill="#45b29a" fill-opacity="1"><g transform="translate(165.606244, 47.230715)"><g><path d="M 6.882812 -22.121094 C 7.683594 -22.121094 8.316406 -22.753906 8.316406 -23.558594 C 8.316406 -24.359375 7.683594 -24.992188 6.882812 -24.992188 C 6.078125 -24.992188 5.402344 -24.359375 5.402344 -23.558594 C 5.402344 -22.753906 6.078125 -22.121094 6.882812 -22.121094 Z M 9.964844 -10.003906 C 9.835938 -10.046875 9.710938 -10.089844 9.582031 -10.089844 C 9.246094 -10.089844 8.949219 -9.878906 8.78125 -9.542969 C 6.671875 -4.558594 3.714844 -0.675781 -1.140625 0.972656 C 5.402344 -17.519531 2.070312 -8.105469 5.996094 -18.703125 C 6.25 -19.378906 5.742188 -19.96875 5.191406 -19.96875 C 4.855469 -19.96875 4.476562 -19.714844 4.304688 -19.292969 C 1.140625 -10.722656 1.6875 -12.707031 -3.25 1.605469 C -4.390625 1.898438 -5.53125 2.109375 -6.585938 2.28125 C -11.652344 3.207031 -13.71875 5.152344 -13.71875 7.808594 C -13.71875 10.300781 -12.074219 11.949219 -9.542969 11.90625 C -6.5 11.863281 -3.882812 8.867188 -1.859375 3.082031 C 4.304688 1.265625 7.808594 -2.660156 10.425781 -8.824219 C 10.46875 -8.949219 10.511719 -9.078125 10.511719 -9.203125 C 10.511719 -9.542969 10.300781 -9.835938 9.964844 -10.003906 Z M -9.542969 10.132812 C -10.976562 10.175781 -11.949219 9.246094 -11.949219 7.769531 C -11.777344 5.824219 -10.132812 4.726562 -6.25 4.054688 C -5.488281 3.925781 -4.726562 3.757812 -3.925781 3.589844 C -5.320312 7.851562 -7.261719 10.089844 -9.542969 10.132812 Z M -9.542969 10.132812 "/></g></g></g><g fill="#45b29a" fill-opacity="1"><g transform="translate(173.668548, 47.230715)"><g><path d="M 18.914062 -10.046875 C 18.785156 -10.089844 18.660156 -10.132812 18.535156 -10.132812 C 18.195312 -10.132812 17.898438 -9.921875 17.730469 -9.582031 L 17.6875 -9.457031 C 16.296875 -6.332031 14.269531 -1.773438 11.652344 -1.773438 C 10.765625 -1.773438 10.386719 -2.28125 10.386719 -3.546875 C 10.386719 -5.402344 11.777344 -9.078125 13.296875 -13.339844 L 15.410156 -18.996094 C 15.621094 -19.503906 15.28125 -20.179688 14.605469 -20.179688 C 14.226562 -20.179688 13.890625 -19.96875 13.761719 -19.632812 C 13.550781 -19.082031 13.296875 -18.449219 13.046875 -17.730469 C 12.285156 -19.25 10.976562 -19.96875 9.203125 -19.96875 C 4.136719 -19.96875 -0.125 -10.089844 -0.125 -4.558594 C -0.125 -2.027344 0.972656 0 3.335938 0 C 5.152344 0 6.921875 -1.183594 8.613281 -3.546875 C 8.613281 -1.476562 9.625 0 11.652344 0 C 15.453125 0 17.730469 -5.191406 19.335938 -8.738281 L 19.378906 -8.867188 C 19.421875 -8.992188 19.460938 -9.117188 19.460938 -9.246094 C 19.460938 -9.582031 19.25 -9.878906 18.914062 -10.046875 Z M 3.292969 -1.773438 C 2.027344 -1.773438 1.644531 -2.996094 1.644531 -4.855469 C 1.730469 -9.035156 5.320312 -18.109375 9.203125 -18.195312 C 10.722656 -18.195312 11.820312 -17.054688 11.90625 -15.113281 L 10.890625 -12.410156 C 9.203125 -8.105469 6.710938 -1.773438 3.292969 -1.773438 Z M 3.292969 -1.773438 "/></g></g></g><g fill="#45b29a" fill-opacity="1"><g transform="translate(190.679582, 47.230715)"><g><path d="M 13.933594 -7.472656 C 13.890625 -10.34375 12.75 -11.820312 10.554688 -15.875 C 11.863281 -17.351562 12.917969 -19.207031 12.917969 -20.898438 C 12.835938 -22.121094 12.117188 -23.09375 10.890625 -23.09375 C 9.160156 -23.09375 7.808594 -21.234375 7.808594 -19.039062 C 7.808594 -18.070312 8.0625 -17.140625 8.445312 -16.253906 C 7.9375 -15.746094 7.515625 -15.28125 7.007812 -14.691406 C 6.882812 -14.523438 6.796875 -14.3125 6.796875 -14.144531 C 6.796875 -13.890625 6.882812 -13.59375 7.09375 -13.425781 C 7.261719 -13.257812 7.515625 -13.214844 7.726562 -13.214844 C 7.980469 -13.214844 8.230469 -13.339844 8.402344 -13.550781 C 8.65625 -13.890625 8.949219 -14.226562 9.246094 -14.523438 C 11.484375 -10.597656 12.117188 -9.371094 12.160156 -7.515625 C 12.074219 -4.011719 9.625 -1.773438 6.207031 -1.773438 C 3.757812 -1.773438 1.605469 -3.589844 1.605469 -6.164062 C 1.773438 -8.738281 3.292969 -10.679688 5.613281 -10.679688 C 6.710938 -10.679688 7.769531 -9.625 7.851562 -8.191406 C 7.851562 -7.683594 8.230469 -7.304688 8.738281 -7.304688 C 9.246094 -7.304688 9.625 -7.683594 9.625 -8.191406 C 9.542969 -10.511719 7.769531 -12.453125 5.574219 -12.453125 C 2.195312 -12.453125 0.0859375 -9.964844 -0.167969 -6.164062 C -0.167969 -2.742188 2.703125 0 6.207031 0 C 10.46875 0 13.847656 -2.914062 13.933594 -7.472656 Z M 9.792969 -17.730469 C 9.667969 -18.195312 9.582031 -18.617188 9.582031 -19.082031 C 9.582031 -19.671875 9.710938 -20.433594 10.214844 -20.941406 C 10.640625 -21.363281 11.101562 -21.488281 11.101562 -20.898438 C 11.101562 -19.96875 10.46875 -18.660156 9.792969 -17.730469 Z M 9.792969 -17.730469 "/></g></g></g></svg>